<svg xmlns="http://www.w3.org/2000/svg" version="1.1" xmlns:xlink="http://www.w3.org/1999/xlink" xmlns:svgjs="http://svgjs.dev/svgjs" viewBox="0 0 1422 800" opacity="0.75"><g stroke-width="1.5" stroke="hsl(0, 0%, 100%)" fill="none" stroke-linecap="butt"><line x1="0" y1="0" x2="74" y2="74"></line><line x1="74" y1="0" x2="148" y2="74"></line><line x1="148" y1="0" x2="222" y2="74"></line><line x1="222" y1="0" x2="296" y2="74"></line><line x1="296" y1="0" x2="370" y2="74"></line><line x1="370" y1="0" x2="444" y2="74"></line><line x1="444" y1="0" x2="518" y2="74"></line><line x1="518" y1="0" x2="592" y2="74"></line><line x1="592" y1="0" x2="666" y2="74"></line><line x1="666" y1="0" x2="740" y2="74"></line><line x1="740" y1="0" x2="814" y2="74"></line><line x1="814" y1="0" x2="888" y2="74"></line><line x1="962" y1="0" x2="888" y2="74"></line><line x1="962" y1="0" x2="1036" y2="74"></line><line x1="1036" y1="0" x2="1110" y2="74"></line><line x1="1184" y1="0" x2="1110" y2="74"></line><line x1="1184" y1="0" x2="1258" y2="74"></line><line x1="1258" y1="0" x2="1332" y2="74"></line><line x1="1332" y1="0" x2="1406" y2="74"></line><line x1="1406" y1="0" x2="1480" y2="74"></line><line x1="0" y1="74" x2="74" y2="148"></line><line x1="74" y1="74" x2="148" y2="148"></line><line x1="148" y1="74" x2="222" y2="148"></line><line x1="222" y1="74" x2="296" y2="148"></line><line x1="370" y1="74" x2="296" y2="148"></line><line x1="370" y1="74" x2="444" y2="148"></line><line x1="518" y1="74" x2="444" y2="148"></line><line x1="592" y1="74" x2="518" y2="148"></line><line x1="592" y1="74" x2="666" y2="148"></line><line x1="740" y1="74" x2="666" y2="148"></line><line x1="740" y1="74" x2="814" y2="148"></line><line x1="814" y1="74" x2="888" y2="148"></line><line x1="962" y1="74" x2="888" y2="148"></line><line x1="1036" y1="74" x2="962" y2="148"></line><line x1="1036" y1="74" x2="1110" y2="148"></line><line x1="1110" y1="74" x2="1184" y2="148"></line><line x1="1184" y1="74" x2="1258" y2="148"></line><line x1="1258" y1="74" x2="1332" y2="148"></line><line x1="1332" y1="74" x2="1406" y2="148"></line><line x1="1480" y1="74" x2="1406" y2="148"></line><line x1="0" y1="148" x2="74" y2="222"></line><line x1="74" y1="148" x2="148" y2="222"></line><line x1="222" y1="148" x2="148" y2="222"></line><line x1="222" y1="148" x2="296" y2="222"></line><line x1="296" y1="148" x2="370" y2="222"></line><line x1="444" y1="148" x2="370" y2="222"></line><line x1="444" y1="148" x2="518" y2="222"></line><line x1="518" y1="148" x2="592" y2="222"></line><line x1="592" y1="148" x2="666" y2="222"></line><line x1="666" y1="148" x2="740" y2="222"></line><line x1="814" y1="148" x2="740" y2="222"></line><line x1="814" y1="148" x2="888" y2="222"></line><line x1="888" y1="148" x2="962" y2="222"></line><line x1="962" y1="148" x2="1036" y2="222"></line><line x1="1110" y1="148" x2="1036" y2="222"></line><line x1="1110" y1="148" x2="1184" y2="222"></line><line x1="1258" y1="148" x2="1184" y2="222"></line><line x1="1332" y1="148" x2="1258" y2="222"></line><line x1="1332" y1="148" x2="1406" y2="222"></line><line x1="1480" y1="148" x2="1406" y2="222"></line><line x1="74" y1="222" x2="0" y2="296"></line><line x1="148" y1="222" x2="74" y2="296"></line><line x1="222" y1="222" x2="148" y2="296"></line><line x1="222" y1="222" x2="296" y2="296"></line><line x1="296" y1="222" x2="370" y2="296"></line><line x1="370" y1="222" x2="444" y2="296"></line><line x1="444" y1="222" x2="518" y2="296"></line><line x1="518" y1="222" x2="592" y2="296"></line><line x1="666" y1="222" x2="592" y2="296"></line><line x1="740" y1="222" x2="666" y2="296"></line><line x1="814" y1="222" x2="740" y2="296"></line><line x1="888" y1="222" x2="814" y2="296"></line><line x1="888" y1="222" x2="962" y2="296"></line><line x1="1036" y1="222" x2="962" y2="296"></line><line x1="1110" y1="222" x2="1036" y2="296"></line><line x1="1110" y1="222" x2="1184" y2="296"></line><line x1="1184" y1="222" x2="1258" y2="296"></line><line x1="1332" y1="222" x2="1258" y2="296"></line><line x1="1332" y1="222" x2="1406" y2="296"></line><line x1="1406" y1="222" x2="1480" y2="296"></line><line x1="0" y1="296" x2="74" y2="370"></line><line x1="148" y1="296" x2="74" y2="370"></line><line x1="148" y1="296" x2="222" y2="370"></line><line x1="222" y1="296" x2="296" y2="370"></line><line x1="296" y1="296" x2="370" y2="370"></line><line x1="370" y1="296" x2="444" y2="370"></line><line x1="444" y1="296" x2="518" y2="370"></line><line x1="518" y1="296" x2="592" y2="370"></line><line x1="666" y1="296" x2="592" y2="370"></line><line x1="740" y1="296" x2="666" y2="370"></line><line x1="740" y1="296" x2="814" y2="370"></line><line x1="814" y1="296" x2="888" y2="370"></line><line x1="962" y1="296" x2="888" y2="370"></line><line x1="962" y1="296" x2="1036" y2="370"></line><line x1="1036" y1="296" x2="1110" y2="370"></line><line x1="1184" y1="296" x2="1110" y2="370"></line><line x1="1258" y1="296" x2="1184" y2="370"></line><line x1="1258" y1="296" x2="1332" y2="370"></line><line x1="1406" y1="296" x2="1332" y2="370"></line><line x1="1480" y1="296" x2="1406" y2="370"></line><line x1="0" y1="370" x2="74" y2="444"></line><line x1="74" y1="370" x2="148" y2="444"></line><line x1="148" y1="370" x2="222" y2="444"></line><line x1="222" y1="370" x2="296" y2="444"></line><line x1="370" y1="370" x2="296" y2="444"></line><line x1="370" y1="370" x2="444" y2="444"></line><line x1="444" y1="370" x2="518" y2="444"></line><line x1="592" y1="370" x2="518" y2="444"></line><line x1="666" y1="370" x2="592" y2="444"></line><line x1="666" y1="370" x2="740" y2="444"></line><line x1="814" y1="370" x2="740" y2="444"></line><line x1="814" y1="370" x2="888" y2="444"></line><line x1="962" y1="370" x2="888" y2="444"></line><line x1="1036" y1="370" x2="962" y2="444"></line><line x1="1036" y1="370" x2="1110" y2="444"></line><line x1="1110" y1="370" x2="1184" y2="444"></line><line x1="1184" y1="370" x2="1258" y2="444"></line><line x1="1258" y1="370" x2="1332" y2="444"></line><line x1="1332" y1="370" x2="1406" y2="444"></line><line x1="1406" y1="370" x2="1480" y2="444"></line><line x1="74" y1="444" x2="0" y2="518"></line><line x1="148" y1="444" x2="74" y2="518"></line><line x1="148" y1="444" x2="222" y2="518"></line><line x1="222" y1="444" x2="296" y2="518"></line><line x1="296" y1="444" x2="370" y2="518"></line><line x1="370" y1="444" x2="444" y2="518"></line><line x1="444" y1="444" x2="518" y2="518"></line><line x1="518" y1="444" x2="592" y2="518"></line><line x1="592" y1="444" x2="666" y2="518"></line><line x1="740" y1="444" x2="666" y2="518"></line><line x1="814" y1="444" x2="740" y2="518"></line><line x1="814" y1="444" x2="888" y2="518"></line><line x1="888" y1="444" x2="962" y2="518"></line><line x1="962" y1="444" x2="1036" y2="518"></line><line x1="1036" y1="444" x2="1110" y2="518"></line><line x1="1110" y1="444" x2="1184" y2="518"></line><line x1="1184" y1="444" x2="1258" y2="518"></line><line x1="1258" y1="444" x2="1332" y2="518"></line><line x1="1332" y1="444" x2="1406" y2="518"></line><line x1="1406" y1="444" x2="1480" y2="518"></line><line x1="74" y1="518" x2="0" y2="592"></line><line x1="148" y1="518" x2="74" y2="592"></line><line x1="148" y1="518" x2="222" y2="592"></line><line x1="222" y1="518" x2="296" y2="592"></line><line x1="296" y1="518" x2="370" y2="592"></line><line x1="370" y1="518" x2="444" y2="592"></line><line x1="444" y1="518" x2="518" y2="592"></line><line x1="518" y1="518" x2="592" y2="592"></line><line x1="592" y1="518" x2="666" y2="592"></line><line x1="666" y1="518" x2="740" y2="592"></line><line x1="740" y1="518" x2="814" y2="592"></line><line x1="814" y1="518" x2="888" y2="592"></line><line x1="888" y1="518" x2="962" y2="592"></line><line x1="962" y1="518" x2="1036" y2="592"></line><line x1="1110" y1="518" x2="1036" y2="592"></line><line x1="1110" y1="518" x2="1184" y2="592"></line><line x1="1184" y1="518" x2="1258" y2="592"></line><line x1="1332" y1="518" x2="1258" y2="592"></line><line x1="1406" y1="518" x2="1332" y2="592"></line><line x1="1480" y1="518" x2="1406" y2="592"></line><line x1="74" y1="592" x2="0" y2="666"></line><line x1="74" y1="592" x2="148" y2="666"></line><line x1="148" y1="592" x2="222" y2="666"></line><line x1="222" y1="592" x2="296" y2="666"></line><line x1="370" y1="592" x2="296" y2="666"></line><line x1="370" y1="592" x2="444" y2="666"></line><line x1="444" y1="592" x2="518" y2="666"></line><line x1="518" y1="592" x2="592" y2="666"></line><line x1="592" y1="592" x2="666" y2="666"></line><line x1="666" y1="592" x2="740" y2="666"></line><line x1="740" y1="592" x2="814" y2="666"></line><line x1="814" y1="592" x2="888" y2="666"></line><line x1="888" y1="592" x2="962" y2="666"></line><line x1="962" y1="592" x2="1036" y2="666"></line><line x1="1110" y1="592" x2="1036" y2="666"></line><line x1="1184" y1="592" x2="1110" y2="666"></line><line x1="1184" y1="592" x2="1258" y2="666"></line><line x1="1258" y1="592" x2="1332" y2="666"></line><line x1="1406" y1="592" x2="1332" y2="666"></line><line x1="1480" y1="592" x2="1406" y2="666"></line><line x1="0" y1="666" x2="74" y2="740"></line><line x1="74" y1="666" x2="148" y2="740"></line><line x1="148" y1="666" x2="222" y2="740"></line><line x1="222" y1="666" x2="296" y2="740"></line><line x1="296" y1="666" x2="370" y2="740"></line><line x1="370" y1="666" x2="444" y2="740"></line><line x1="444" y1="666" x2="518" y2="740"></line><line x1="518" y1="666" x2="592" y2="740"></line><line x1="592" y1="666" x2="666" y2="740"></line><line x1="666" y1="666" x2="740" y2="740"></line><line x1="740" y1="666" x2="814" y2="740"></line><line x1="814" y1="666" x2="888" y2="740"></line><line x1="888" y1="666" x2="962" y2="740"></line><line x1="962" y1="666" x2="1036" y2="740"></line><line x1="1036" y1="666" x2="1110" y2="740"></line><line x1="1184" y1="666" x2="1110" y2="740"></line><line x1="1258" y1="666" x2="1184" y2="740"></line><line x1="1258" y1="666" x2="1332" y2="740"></line><line x1="1406" y1="666" x2="1332" y2="740"></line><line x1="1480" y1="666" x2="1406" y2="740"></line><line x1="0" y1="740" x2="74" y2="814"></line><line x1="148" y1="740" x2="74" y2="814"></line><line x1="222" y1="740" x2="148" y2="814"></line><line x1="296" y1="740" x2="222" y2="814"></line><line x1="296" y1="740" x2="370" y2="814"></line><line x1="370" y1="740" x2="444" y2="814"></line><line x1="444" y1="740" x2="518" y2="814"></line><line x1="592" y1="740" x2="518" y2="814"></line><line x1="666" y1="740" x2="592" y2="814"></line><line x1="666" y1="740" x2="740" y2="814"></line><line x1="740" y1="740" x2="814" y2="814"></line><line x1="888" y1="740" x2="814" y2="814"></line><line x1="888" y1="740" x2="962" y2="814"></line><line x1="1036" y1="740" x2="962" y2="814"></line><line x1="1036" y1="740" x2="1110" y2="814"></line><line x1="1110" y1="740" x2="1184" y2="814"></line><line x1="1258" y1="740" x2="1184" y2="814"></line><line x1="1332" y1="740" x2="1258" y2="814"></line><line x1="1406" y1="740" x2="1332" y2="814"></line><line x1="1406" y1="740" x2="1480" y2="814"></line></g></svg>